# xmcd
#
# Track frame offsets:
#	182
#	17355
#	34402
#	49732
#	69302
#	89785
#	114195
#	131410
#	147750
#	166145
#	186120
#	207477
#	231255
#	255087
#	270700
#
# Disc length: 3824 seconds
#
# Revision: 1
# Processed by: cddbd v1.5.1PL0 Copyright (c) Steve Scherf et al.
# Submitted via: audiograbber 1.83.01
#
DISCID=c90eee0f
DTITLE=Music Maestro #6001 - Pop 90's Hits - Vol II
DYEAR=1900
DGENRE=
TTITLE0=Vanessa Williams - Save the Best for Last
TTITLE1=Michael Bolton - When a Man Loves a Woman
TTITLE2=Natalie Cole - Unforgettable
TTITLE3=Whitney Houston - All the Man I Need
TTITLE4=Eric Clapton - Layla
TTITLE5=Madonna - This Used to by my Playground
TTITLE6=Amy Grant - Baby Baby
TTITLE7=Bonnie Raitt - Something to Talk About
TTITLE8=Lenny Kravitz - It Ain't Over 'til it's Over
TTITLE9=Jon Secada - Just Another Day
TTITLE10=Patty Smythe - Sometimes Love Just Ain't Enough
TTITLE11=Duran Duran - Ordinary World
TTITLE12=Celine Dion - Nothing Broken but my Heart
TTITLE13=Elton John - The Last Song
TTITLE14=Michael Bolton - How Can we be Lovers
EXTD=Karaoke
EXTT0=
EXTT1=
EXTT2=
EXTT3=
EXTT4=
EXTT5=
EXTT6=
EXTT7=
EXTT8=
EXTT9=
EXTT10=
EXTT11=
EXTT12=
EXTT13=
EXTT14=
PLAYORDER=
